<?xml version="1.0" encoding="utf-8"?>
<!-- Generator: Adobe Illustrator 19.0.0, SVG Export Plug-In . SVG Version: 6.00 Build 0)  -->
<svg version="1.1" id="Layer_1" xmlns="http://www.w3.org/2000/svg" xmlns:xlink="http://www.w3.org/1999/xlink" x="0px" y="0px"
	 viewBox="415.1 249.6 133 60.7" style="enable-background:new 415.1 249.6 133 60.7;" xml:space="preserve">
<style type="text/css">
	.st0{fill:#0156D9;}
	.st1{fill:none;stroke:url(#XMLID_6_);stroke-width:6;stroke-miterlimit:10;}
</style>
<g id="XMLID_3_">
	<g id="XMLID_22_">
		<path id="XMLID_23_" class="st0" d="M429.4,266.4h2.2c4.6,0,8.4,2.3,11.4,7c1,1.5,1.5,3.5,1.5,5.8v0.6c0,0.8-0.1,1.7-0.3,2.6
			c-0.7,3.2-2.9,6.6-6.4,10.1l-8.9,8.9c-0.6,0.6-1.2,1.1-1.8,1.6c-4-1.1-6-2.3-6-3.5v-0.2c9.1-8.7,14.1-13.7,15-15
			c0.8-1.2,1.3-2.5,1.3-4c0-2.6-1-4.4-2.8-5.6c-1.1-0.6-2.3-0.9-3.6-0.9h-0.5c-3.3,0-5.5,1.6-6.4,4.7c-0.2,0.8-0.3,1.3-0.3,1.7v0.4
			c0,2.2,2.1,5.3,6.3,9.3c-2.3,2-4.2,3-5.9,3c-0.7,0-1.9-0.9-3.6-2.6s-2.9-4.5-3.6-8.2c-0.2-1.1-0.3-2-0.3-2.7v-0.1
			c0-4.6,2.4-8.4,7.1-11.4C425.1,267,427,266.5,429.4,266.4z M444.4,278.8v0.7c0.1,4.8,1.6,7.3,4.3,7.3h1.7c0.1,0,0.2,0.1,0.2,0.2
			v6.5c0,0.1-0.1,0.2-0.4,0.2h-0.1c-4.3,0-7.9-2.4-10.9-7.2c-1.1-2-1.6-4-1.6-6v-1.9L444.4,278.8z"/>
		<path id="XMLID_26_" class="st0" d="M456.7,274.3v-22.5c0-0.1,0.1-0.2,0.2-0.2c2.2,0,4.2,0.6,6,1.9c0.5,0.3,0.7,0.7,0.7,1.2
			c-0.1,13.8-0.1,21.8-0.1,24.2v0.7c0.1,4.8,1.6,7.3,4.3,7.3h2.4c0.1,0,0.2,0.1,0.2,0.2v6.5c0,0.1-0.1,0.2-0.2,0.2h-0.4
			c-3.8,0-7.1-1.5-9.8-4.6c-2.7,3.1-5.9,4.6-9.7,4.6h-0.4c-0.1,0-0.2-0.1-0.2-0.2v-6.5c0-0.1,0.1-0.2,0.2-0.2h2.4
			c2.8-0.1,4.2-2.5,4.3-7.3v-0.7C456.7,277.5,456.7,276,456.7,274.3L456.7,274.3z"/>
		<path id="XMLID_28_" class="st0" d="M476.9,274.3v-7.8c0-0.1,0.1-0.2,0.2-0.2c2.2,0,4.2,0.6,6,1.9c0.3,0.3,0.5,0.7,0.7,1.2
			c-0.1,3.9-0.1,7-0.1,9.4v0.7c0,3.9-1.1,7.2-3.4,9.7c-2.7,3.1-5.9,4.6-9.7,4.6h-0.4c-0.1,0-0.2-0.1-0.2-0.2v-6.5
			c0-0.1,0.1-0.2,0.2-0.2h2.4c2.8-0.1,4.2-2.5,4.3-7.3v-0.7C476.9,277.5,476.9,276,476.9,274.3z M478.9,301.2c0,0.6-0.1,1.1-0.3,1.6
			s-0.5,0.9-0.8,1.3c-0.4,0.4-0.8,0.7-1.3,0.9s-1,0.3-1.6,0.3s-1.1-0.1-1.6-0.3s-0.9-0.5-1.3-0.9s-0.7-0.8-0.9-1.3s-0.3-1-0.3-1.6
			s0.1-1.1,0.3-1.6s0.5-0.9,0.9-1.3s0.8-0.6,1.3-0.8s1-0.3,1.6-0.3s1.1,0.1,1.6,0.3s0.9,0.5,1.3,0.8s0.6,0.8,0.8,1.3
			S478.9,300.7,478.9,301.2z"/>
	</g>
	<g id="XMLID_13_">
		<path id="XMLID_14_" class="st0" d="M429.4,266.4h2.2c4.6,0,8.4,2.3,11.4,7c1,1.5,1.5,3.5,1.5,5.8v0.6c0,0.8-0.1,1.7-0.3,2.6
			c-0.7,3.2-2.9,6.6-6.4,10.1l-8.9,8.9c-0.6,0.6-1.2,1.1-1.8,1.6c-4-1.1-6-2.3-6-3.5v-0.2c9.1-8.7,14.1-13.7,15-15
			c0.8-1.2,1.3-2.5,1.3-4c0-2.6-1-4.4-2.8-5.6c-1.1-0.6-2.3-0.9-3.6-0.9h-0.5c-3.3,0-5.5,1.6-6.4,4.7c-0.2,0.8-0.3,1.3-0.3,1.7v0.4
			c0,2.2,2.1,5.3,6.3,9.3c-2.3,2-4.2,3-5.9,3c-0.7,0-1.9-0.9-3.6-2.6s-2.9-4.5-3.6-8.2c-0.2-1.1-0.3-2-0.3-2.7v-0.1
			c0-4.6,2.4-8.4,7.1-11.4C425.1,267,427,266.5,429.4,266.4z M444.4,278.8v0.7c0.1,4.8,1.6,7.3,4.3,7.3h1.7c0.1,0,0.2,0.1,0.2,0.2
			v6.5c0,0.1-0.1,0.2-0.4,0.2h-0.1c-4.3,0-7.9-2.4-10.9-7.2c-1.1-2-1.6-4-1.6-6v-1.9L444.4,278.8z"/>
		<path id="XMLID_17_" class="st0" d="M456.7,274.3v-22.5c0-0.1,0.1-0.2,0.2-0.2c2.2,0,4.2,0.6,6,1.9c0.5,0.3,0.7,0.7,0.7,1.2
			c-0.1,13.8-0.1,21.8-0.1,24.2v0.7c0.1,4.8,1.6,7.3,4.3,7.3h2.4c0.1,0,0.2,0.1,0.2,0.2v6.5c0,0.1-0.1,0.2-0.2,0.2h-0.4
			c-3.8,0-7.1-1.5-9.8-4.6c-2.7,3.1-5.9,4.6-9.7,4.6h-0.4c-0.1,0-0.2-0.1-0.2-0.2v-6.5c0-0.1,0.1-0.2,0.2-0.2h2.4
			c2.8-0.1,4.2-2.5,4.3-7.3v-0.7C456.7,277.5,456.7,276,456.7,274.3L456.7,274.3z"/>
		<path id="XMLID_19_" class="st0" d="M476.9,274.3v-7.8c0-0.1,0.1-0.2,0.2-0.2c2.2,0,4.2,0.6,6,1.9c0.3,0.3,0.5,0.7,0.7,1.2
			c-0.1,3.9-0.1,7-0.1,9.4v0.7c0,3.9-1.1,7.2-3.4,9.7c-2.7,3.1-5.9,4.6-9.7,4.6h-0.4c-0.1,0-0.2-0.1-0.2-0.2v-6.5
			c0-0.1,0.1-0.2,0.2-0.2h2.4c2.8-0.1,4.2-2.5,4.3-7.3v-0.7C476.9,277.5,476.9,276,476.9,274.3z M478.9,301.2c0,0.6-0.1,1.1-0.3,1.6
			s-0.5,0.9-0.8,1.3c-0.4,0.4-0.8,0.7-1.3,0.9s-1,0.3-1.6,0.3s-1.1-0.1-1.6-0.3s-0.9-0.5-1.3-0.9s-0.7-0.8-0.9-1.3s-0.3-1-0.3-1.6
			s0.1-1.1,0.3-1.6s0.5-0.9,0.9-1.3s0.8-0.6,1.3-0.8s1-0.3,1.6-0.3s1.1,0.1,1.6,0.3s0.9,0.5,1.3,0.8s0.6,0.8,0.8,1.3
			S478.9,300.7,478.9,301.2z"/>
	</g>
	<g id="XMLID_2_">
		<path id="XMLID_5_" class="st0" d="M429.4,266.4h2.2c4.6,0,8.4,2.3,11.4,7c1,1.5,1.5,3.5,1.5,5.8v0.6c0,0.8-0.1,1.7-0.3,2.6
			c-0.7,3.2-2.9,6.6-6.4,10.1l-8.9,8.9c-0.6,0.6-1.2,1.1-1.8,1.6c-4-1.1-6-2.3-6-3.5v-0.2c9.1-8.7,14.1-13.7,15-15
			c0.8-1.2,1.3-2.5,1.3-4c0-2.6-1-4.4-2.8-5.6c-1.1-0.6-2.3-0.9-3.6-0.9h-0.5c-3.3,0-5.5,1.6-6.4,4.7c-0.2,0.8-0.3,1.3-0.3,1.7v0.4
			c0,2.2,2.1,5.3,6.3,9.3c-2.3,2-4.2,3-5.9,3c-0.7,0-1.9-0.9-3.6-2.6s-2.9-4.5-3.6-8.2c-0.2-1.1-0.3-2-0.3-2.7v-0.1
			c0-4.6,2.4-8.4,7.1-11.4C425.1,267,427,266.5,429.4,266.4z M444.4,278.8v0.7c0.1,4.8,1.6,7.3,4.3,7.3h1.7c0.1,0,0.2,0.1,0.2,0.2
			v6.5c0,0.1-0.1,0.2-0.4,0.2h-0.1c-4.3,0-7.9-2.4-10.9-7.2c-1.1-2-1.6-4-1.6-6v-1.9L444.4,278.8z"/>
		<path id="XMLID_8_" class="st0" d="M456.7,274.3v-22.5c0-0.1,0.1-0.2,0.2-0.2c2.2,0,4.2,0.6,6,1.9c0.5,0.3,0.7,0.7,0.7,1.2
			c-0.1,13.8-0.1,21.8-0.1,24.2v0.7c0.1,4.8,1.6,7.3,4.3,7.3h2.4c0.1,0,0.2,0.1,0.2,0.2v6.5c0,0.1-0.1,0.2-0.2,0.2h-0.4
			c-3.8,0-7.1-1.5-9.8-4.6c-2.7,3.1-5.9,4.6-9.7,4.6h-0.4c-0.1,0-0.2-0.1-0.2-0.2v-6.5c0-0.1,0.1-0.2,0.2-0.2h2.4
			c2.8-0.1,4.2-2.5,4.3-7.3v-0.7C456.7,277.5,456.7,276,456.7,274.3L456.7,274.3z"/>
		<path id="XMLID_10_" class="st0" d="M476.9,274.3v-7.8c0-0.1,0.1-0.2,0.2-0.2c2.2,0,4.2,0.6,6,1.9c0.3,0.3,0.5,0.7,0.7,1.2
			c-0.1,3.9-0.1,7-0.1,9.4v0.7c0,3.9-1.1,7.2-3.4,9.7c-2.7,3.1-5.9,4.6-9.7,4.6h-0.4c-0.1,0-0.2-0.1-0.2-0.2v-6.5
			c0-0.1,0.1-0.2,0.2-0.2h2.4c2.8-0.1,4.2-2.5,4.3-7.3v-0.7C476.9,277.5,476.9,276,476.9,274.3z M478.9,301.2c0,0.6-0.1,1.1-0.3,1.6
			s-0.5,0.9-0.8,1.3c-0.4,0.4-0.8,0.7-1.3,0.9s-1,0.3-1.6,0.3s-1.1-0.1-1.6-0.3s-0.9-0.5-1.3-0.9s-0.7-0.8-0.9-1.3s-0.3-1-0.3-1.6
			s0.1-1.1,0.3-1.6s0.5-0.9,0.9-1.3s0.8-0.6,1.3-0.8s1-0.3,1.6-0.3s1.1,0.1,1.6,0.3s0.9,0.5,1.3,0.8s0.6,0.8,0.8,1.3
			S478.9,300.7,478.9,301.2z"/>
	</g>
	
		<linearGradient id="XMLID_6_" gradientUnits="userSpaceOnUse" x1="508.8667" y1="300.0817" x2="531.9941" y2="260.0239" gradientTransform="matrix(1 0 0 -1 0 560)">
		<stop  offset="0" style="stop-color:#002AFF"/>
		<stop  offset="0.2853" style="stop-color:#0045FF"/>
		<stop  offset="0.8951" style="stop-color:#0089FF"/>
		<stop  offset="0.9951" style="stop-color:#0095FF"/>
	</linearGradient>
	<path id="XMLID_1_" class="st1" d="M513.9,296.9H527c9.3,0,16.9-7.5,16.9-16.9l0,0c0-9.3-7.5-16.9-16.9-16.9h-13.1
		c-9.3,0-16.9,7.5-16.9,16.9l0,0C497,289.3,504.6,296.9,513.9,296.9z"/>
</g>
</svg>
