
<svg width="22" height="22" viewBox="0 0 22 22" fill="none" xmlns="http://www.w3.org/2000/svg">
<path d="M10.7949 0.0438264L0.431796 3.78386C0.172718 3.87186 0 4.13586 0 4.39986V17.6C0 17.886 0.172718 18.128 0.431796 18.216L10.7949 21.956C10.8597 21.978 10.946 22 11.0108 22C11.054 22 11.0756 22 11.1187 22H11.1403C11.1619 22 11.1835 21.978 11.2051 21.978L21.5682 18.238C21.8273 18.15 22 17.886 22 17.622V4.39986V4.37786C22 4.35586 22 4.31186 22 4.28986V4.26786C21.9568 4.04786 21.8057 3.84986 21.5898 3.78386L16.4082 1.91384H16.3867C16.2571 1.86984 16.0844 1.84784 15.9333 1.91384L5.82924 5.54387C5.57017 5.63187 5.39745 5.89587 5.39745 6.15988V8.5799C5.39745 8.9539 5.67812 9.2399 6.04514 9.2399C6.41217 9.2399 6.69284 8.9539 6.69284 8.5799V6.62188L16.1492 3.21185L19.4308 4.39986L10.7949 7.52389C10.5358 7.61189 10.3631 7.85389 10.3631 8.13989C10.3631 8.13989 10.3631 8.13989 10.3631 8.16189V20.438L1.29539 17.138V4.86187L11.2267 1.27584C11.5721 1.14384 11.7448 0.769832 11.6153 0.43983C11.5074 0.0878268 11.1403 -0.0881746 10.7949 0.0438264ZM11.6585 8.6019L20.7262 5.32387V17.116L11.6585 20.394V8.6019Z" fill="#878787"/>
</svg>
