
<svg width="22" height="22" viewBox="0 0 22 22" fill="none" xmlns="http://www.w3.org/2000/svg">
<path fill-rule="evenodd" clip-rule="evenodd" d="M3.1118 0.0908203H3.02788C2.64355 0.0908203 2.31292 0.0908203 2.02089 0.159626C1.56881 0.267643 1.15546 0.498699 0.826648 0.827193C0.497832 1.15569 0.266385 1.56879 0.157953 2.02074C0.0908202 2.31275 0.0908203 2.64167 0.0908203 3.02766V7.22314C0.0908203 7.60744 0.0908203 7.93805 0.159632 8.23005C0.267656 8.6821 0.49873 9.09541 0.82725 9.4242C1.15577 9.75299 1.56891 9.98442 2.02089 10.0928C2.31292 10.16 2.64187 10.16 3.02788 10.16H7.22369C7.60802 10.16 7.93865 10.16 8.23068 10.0912C8.68276 9.98315 9.09611 9.7521 9.42492 9.4236C9.75374 9.09511 9.98518 8.682 10.0936 8.23005C10.1608 7.93805 10.1607 7.60912 10.1607 7.22314V3.02766C10.1607 2.64335 10.1608 2.31275 10.0919 2.02074C9.98391 1.5687 9.75284 1.15538 9.42432 0.826591C9.0958 0.4978 8.68266 0.266372 8.23068 0.157948C7.93865 0.0908202 7.6097 0.0908203 7.22369 0.0908203H3.1118ZM2.41194 1.79251C2.48411 1.77573 2.59655 1.76901 3.1118 1.76901H7.13977C7.65669 1.76901 7.76746 1.77405 7.83963 1.79251C7.99039 1.82856 8.12823 1.90566 8.23784 2.01526C8.34745 2.12487 8.42456 2.26269 8.46061 2.41344C8.47739 2.48392 8.48243 2.59468 8.48243 3.11157V7.13923C8.48243 7.65611 8.47739 7.76687 8.45893 7.83903C8.42288 7.98979 8.34577 8.12761 8.23616 8.23721C8.12655 8.34681 7.98872 8.42392 7.83795 8.45997C7.76914 8.47507 7.65837 8.48178 7.13977 8.48178H3.1118C2.59488 8.48178 2.48411 8.47675 2.41194 8.45829C2.26118 8.42224 2.12334 8.34513 2.01373 8.23553C1.90412 8.12593 1.82701 7.98811 1.79096 7.83736C1.77586 7.76855 1.76914 7.65779 1.76914 7.13923V3.11157C1.76914 2.59468 1.77418 2.48392 1.79264 2.41176C1.82869 2.26101 1.9058 2.12319 2.01541 2.01358C2.12502 1.90398 2.26285 1.82688 2.41362 1.79083L2.41194 1.79251ZM14.8601 0.0908203H14.7761C14.3918 0.0908203 14.0612 0.0908203 13.7691 0.159626C13.3171 0.267643 12.9037 0.498699 12.5749 0.827193C12.2461 1.15569 12.0146 1.56879 11.9062 2.02074C11.8391 2.31275 11.8391 2.64167 11.8391 3.02766V7.22314C11.8391 7.60744 11.8391 7.93805 11.9079 8.23005C12.0159 8.6821 12.247 9.09541 12.5755 9.4242C12.904 9.75299 13.3172 9.98442 13.7691 10.0928C14.0612 10.16 14.3901 10.16 14.7761 10.16H18.9719C19.3563 10.16 19.6869 10.16 19.9789 10.0912C20.431 9.98315 20.8444 9.7521 21.1732 9.4236C21.502 9.09511 21.7334 8.682 21.8419 8.23005C21.909 7.93805 21.909 7.60912 21.909 7.22314V3.02766C21.909 2.64335 21.909 2.31275 21.8402 2.02074C21.7322 1.5687 21.5011 1.15538 21.1726 0.826591C20.8441 0.4978 20.4309 0.266372 19.9789 0.157948C19.6869 0.0908202 19.358 0.0908203 18.9719 0.0908203H14.8601ZM14.1602 1.79251C14.2324 1.77573 14.3448 1.76901 14.8601 1.76901H18.888C19.4049 1.76901 19.5157 1.77405 19.5879 1.79251C19.7386 1.82856 19.8765 1.90566 19.9861 2.01526C20.0957 2.12487 20.1728 2.26269 20.2089 2.41344C20.2256 2.48392 20.2307 2.59468 20.2307 3.11157V7.13923C20.2307 7.65611 20.224 7.76687 20.2072 7.83903C20.1711 7.98979 20.094 8.12761 19.9844 8.23721C19.8748 8.34681 19.737 8.42392 19.5862 8.45997C19.5157 8.47675 19.4049 8.48178 18.888 8.48178H14.8601C14.3431 8.48178 14.2324 8.47675 14.1602 8.45829C14.0094 8.42224 13.8716 8.34513 13.762 8.23553C13.6524 8.12593 13.5753 7.98811 13.5392 7.83736C13.5241 7.76855 13.5174 7.65779 13.5174 7.13923V3.11157C13.5174 2.59468 13.5224 2.48392 13.5409 2.41176C13.5769 2.26101 13.654 2.12319 13.7637 2.01358C13.8733 1.90398 14.0111 1.82688 14.1619 1.79083L14.1602 1.79251ZM3.02788 11.8382H7.22369C7.60802 11.8382 7.93865 11.8382 8.23068 11.907C8.68276 12.015 9.09611 12.246 9.42492 12.5745C9.75374 12.903 9.98518 13.3161 10.0936 13.7681C10.1608 14.0601 10.1607 14.389 10.1607 14.775V18.9705C10.1607 19.3548 10.1608 19.6854 10.0919 19.9774C9.98391 20.4294 9.75284 20.8428 9.42432 21.1716C9.0958 21.5003 8.68266 21.7318 8.23068 21.8402C7.93865 21.9073 7.6097 21.9073 7.22369 21.9073H3.02788C2.64355 21.9073 2.31292 21.9073 2.02089 21.8385C1.56881 21.7305 1.15546 21.4994 0.826648 21.1709C0.497832 20.8425 0.266385 20.4293 0.157953 19.9774C0.0908202 19.6854 0.0908203 19.3565 0.0908203 18.9705V14.775C0.0908203 14.3907 0.0908203 14.0601 0.159632 13.7681C0.267656 13.316 0.49873 12.9027 0.82725 12.5739C1.15577 12.2451 1.56891 12.0137 2.02089 11.9053C2.31292 11.8382 2.64187 11.8382 3.02788 11.8382ZM3.1118 13.5164C2.59488 13.5164 2.48411 13.5214 2.41194 13.5399C2.26118 13.5759 2.12334 13.653 2.01373 13.7626C1.90412 13.8722 1.82701 14.01 1.79096 14.1608C1.77586 14.2296 1.76914 14.3404 1.76914 14.8589V18.8866C1.76914 19.4035 1.77418 19.5142 1.79264 19.5864C1.82869 19.7371 1.9058 19.875 2.01541 19.9846C2.12502 20.0942 2.26285 20.1713 2.41362 20.2073C2.48411 20.2241 2.59488 20.2291 3.1118 20.2291H7.13977C7.65669 20.2291 7.76746 20.2224 7.83963 20.2056C7.99039 20.1696 8.12823 20.0925 8.23784 19.9829C8.34745 19.8733 8.42456 19.7355 8.46061 19.5847C8.47739 19.5142 8.48243 19.4035 8.48243 18.8866V14.8589C8.48243 14.342 8.47739 14.2313 8.45893 14.1591C8.42288 14.0084 8.34577 13.8705 8.23616 13.7609C8.12655 13.6513 7.98872 13.5742 7.83795 13.5382C7.76914 13.5231 7.65837 13.5164 7.13977 13.5164H3.1118ZM14.8601 11.8382H14.7761C14.3918 11.8382 14.0612 11.8382 13.7691 11.907C13.3171 12.015 12.9037 12.246 12.5749 12.5745C12.2461 12.903 12.0146 13.3161 11.9062 13.7681C11.8391 14.0601 11.8391 14.389 11.8391 14.775V18.9705C11.8391 19.3548 11.8391 19.6854 11.9079 19.9774C12.0159 20.4294 12.247 20.8428 12.5755 21.1716C12.904 21.5003 13.3172 21.7318 13.7691 21.8402C14.0612 21.909 14.3918 21.909 14.7761 21.909H18.9719C19.3563 21.909 19.6869 21.909 19.9789 21.8402C20.4307 21.7319 20.8437 21.5007 21.1722 21.1723C21.5007 20.8438 21.7319 20.4308 21.8402 19.9791C21.909 19.6871 21.909 19.3565 21.909 18.9722V14.775C21.909 14.3907 21.909 14.0601 21.8402 13.7681C21.7322 13.316 21.5011 12.9027 21.1726 12.5739C20.8441 12.2451 20.4309 12.0137 19.9789 11.9053C19.6869 11.8382 19.358 11.8382 18.9719 11.8382H14.8601ZM14.1602 13.5399C14.2324 13.5231 14.3448 13.5164 14.8601 13.5164H18.888C19.4049 13.5164 19.5157 13.5214 19.5879 13.5399C19.7386 13.5759 19.8765 13.653 19.9861 13.7626C20.0957 13.8722 20.1728 14.01 20.2089 14.1608C20.2256 14.2313 20.2307 14.342 20.2307 14.8589V18.8866C20.2307 19.4035 20.224 19.5142 20.2072 19.5864C20.1711 19.7371 20.094 19.875 19.9844 19.9846C19.8748 20.0942 19.737 20.1713 19.5862 20.2073C19.5157 20.2241 19.4049 20.2291 18.888 20.2291H14.8601C14.3431 20.2291 14.2324 20.2224 14.1602 20.2056C14.0094 20.1696 13.8716 20.0925 13.762 19.9829C13.6524 19.8733 13.5753 19.7355 13.5392 19.5847C13.5241 19.5159 13.5174 19.4051 13.5174 18.8866V14.8589C13.5174 14.342 13.5224 14.2313 13.5409 14.1591C13.5769 14.0084 13.654 13.8705 13.7637 13.7609C13.8733 13.6513 14.0111 13.5742 14.1619 13.5382L14.1602 13.5399Z" fill="#878787"/>
</svg>