<svg width="24" height="24" viewBox="0 0 24 24" fill="none" xmlns="http://www.w3.org/2000/svg">
<path d="M10.5 19.5H6.75C3.45 19.5 0.75 16.8 0.75 13.5C0.75 10.725 2.7 8.325 5.4 7.65C6 4.125 9.075 1.5 12.75 1.5C16.875 1.5 20.25 4.875 20.25 9H18.75C18.75 5.7 16.05 3 12.75 3C9.675 3 7.125 5.325 6.75 8.4V9L6.15 9.075C3.9 9.375 2.25 11.25 2.25 13.5C2.25 15.975 4.275 18 6.75 18H10.5V19.5Z" fill="#878787"/>
<g clip-path="url(#clip0_9003_176080)">
<path d="M23.473 18.9538L22.9738 18.5428C22.6319 18.2613 22.6325 17.7381 22.9738 17.4572L23.473 17.0462C23.8283 16.7537 23.9191 16.2522 23.6891 15.8537L22.7033 14.1463C22.4732 13.7478 21.9934 13.5758 21.5625 13.7372L20.957 13.964C20.5423 14.1194 20.0895 13.8574 20.0168 13.4212L19.9105 12.7834C19.8349 12.3295 19.446 12 18.9858 12H17.0143C16.5541 12 16.1652 12.3295 16.0896 12.7834L15.9833 13.4212C15.9105 13.8581 15.457 14.1191 15.0431 13.964L14.4375 13.7372C14.0067 13.5758 13.5269 13.7478 13.2967 14.1463L12.311 15.8536C12.081 16.2521 12.1718 16.7537 12.5271 17.0462L13.0263 17.4571C13.3683 17.7387 13.3676 18.2618 13.0263 18.5428L12.5271 18.9538C12.1718 19.2463 12.0809 19.7478 12.311 20.1463L13.2967 21.8536C13.5269 22.2521 14.0066 22.4242 14.4375 22.2628L15.043 22.036C15.4579 21.8805 15.9106 22.1427 15.9833 22.5788L16.0896 23.2166C16.1652 23.6705 16.5541 24 17.0143 24H18.9858C19.4459 24 19.8349 23.6705 19.9105 23.2166L20.0168 22.5788C20.0896 22.142 20.543 21.8809 20.957 22.036L21.5625 22.2628C21.9935 22.4243 22.4732 22.2522 22.7033 21.8537L23.6891 20.1463C23.9191 19.7478 23.8283 19.2463 23.473 18.9538V18.9538ZM21.8914 21.3849L21.2859 21.1581C20.318 20.7955 19.2616 21.4072 19.0921 22.4247L18.9858 23.0625H17.0143L16.908 22.4247C16.7381 21.4052 15.6802 20.7962 14.7142 21.1581L14.1086 21.3849L13.1229 19.6776L13.6221 19.2666C14.4202 18.6097 14.4185 17.389 13.6221 16.7334L13.1229 16.3224L14.1087 14.6151L14.7142 14.8419C15.6821 15.2045 16.7385 14.5928 16.908 13.5753L17.0143 12.9375H18.9858L19.092 13.5753C19.262 14.5949 20.3199 15.2038 21.2859 14.8419L21.8914 14.6151L22.8774 16.3222C22.8774 16.3222 22.8773 16.3222 22.8771 16.3224L22.3779 16.7333C21.5799 17.3902 21.5815 18.611 22.3779 19.2666L22.8771 19.6776L21.8914 21.3849ZM18 15.6875C16.7249 15.6875 15.6875 16.7249 15.6875 18C15.6875 19.2751 16.7249 20.3125 18 20.3125C19.2752 20.3125 20.3126 19.2751 20.3126 18C20.3126 16.7249 19.2752 15.6875 18 15.6875ZM18 19.375C17.2419 19.375 16.625 18.7582 16.625 18C16.625 17.2418 17.2419 16.625 18 16.625C18.7582 16.625 19.3751 17.2418 19.3751 18C19.3751 18.7582 18.7582 19.375 18 19.375Z" fill="#878787"/>
</g>
<defs>
<clipPath id="clip0_9003_176080">
<rect width="12" height="12" fill="white" transform="translate(12 12)"/>
</clipPath>
</defs>
</svg>
