
<svg width="24" height="24" viewBox="0 0 24 24" fill="none" xmlns="http://www.w3.org/2000/svg">
<path d="M16.923 1.89432C16.774 1.74645 16.5723 1.66398 16.3624 1.66505H9.27923C8.58237 1.66843 7.91177 1.93147 7.39832 2.40244C6.88487 2.87358 6.56529 3.51893 6.50205 4.21296H5.20252C4.45925 4.21296 3.74638 4.50817 3.22065 5.03389C2.6951 5.55944 2.3999 6.27231 2.3999 7.01557V19.5513C2.3999 20.2946 2.69511 21.0074 3.22065 21.533C3.74638 22.0587 4.45925 22.3539 5.20252 22.3539H14.1202C14.8171 22.3505 15.4877 22.0875 16.0011 21.6165C16.5146 21.1454 16.8342 20.5 16.8974 19.806H18.1969C18.9402 19.806 19.6531 19.5108 20.1788 18.9851C20.7043 18.4595 20.9995 17.7466 20.9995 17.0034V6.37859C21.0061 6.17509 20.9222 5.97924 20.7703 5.84362L16.923 1.89432ZM17.1014 4.26379L18.6046 5.79262H17.3561C17.2863 5.80098 17.2166 5.77681 17.1668 5.72704C17.1172 5.67746 17.0931 5.60761 17.1012 5.53794L17.1014 4.26379ZM14.1203 20.8252H5.20265L5.20247 20.8254C4.86461 20.8254 4.54061 20.691 4.30174 20.4522C4.06269 20.2133 3.92851 19.8893 3.92851 19.5514V7.0157C3.92851 6.67784 4.06269 6.35384 4.30174 6.11497C4.54061 5.87611 4.8646 5.74174 5.20247 5.74174H6.47643V17.0035C6.47643 17.7468 6.77181 18.4596 7.29736 18.9852C7.82291 19.5109 8.53578 19.8061 9.27923 19.8061H15.3687C15.3099 20.0939 15.1537 20.3525 14.9262 20.5382C14.6985 20.7239 14.414 20.8254 14.1202 20.8254L14.1203 20.8252ZM18.1971 18.2773H9.2794L9.27923 18.2775C8.94136 18.2775 8.61736 18.1431 8.37831 17.9042C8.13944 17.6654 8.00526 17.3414 8.00526 17.0035V4.46779C8.00526 4.12993 8.13944 3.80593 8.37831 3.56706C8.61736 3.32819 8.94135 3.19383 9.27923 3.19383H15.5726V5.53805C15.5726 6.011 15.7604 6.46471 16.0949 6.79922C16.4294 7.13353 16.8829 7.32154 17.3561 7.32154H19.4708V17.0036C19.4708 17.3415 19.3367 17.6655 19.0976 17.9043C18.8587 18.1432 18.5347 18.2776 18.1969 18.2776L18.1971 18.2773Z" fill="#878787"/>
<path d="M16.9994 10.2256H15.3942V11.576L14.0184 13.0538L12.3878 11.9326C12.2397 11.8344 12.062 11.791 11.8853 11.8095C11.7087 11.8281 11.5439 11.9078 11.4195 12.0345L9.02441 14.3786L10.1199 15.4741L12.0563 13.5631L13.7123 14.6843L13.7125 14.6844C13.8661 14.7801 14.047 14.8218 14.2269 14.8035C14.4067 14.785 14.5754 14.7072 14.7062 14.5824L16.5661 12.5697L17.7127 12.6207L17.7637 10.99H17.7638C17.7846 10.7819 17.7096 10.5755 17.56 10.4295C17.3975 10.307 17.2024 10.2361 16.9994 10.2256L16.9994 10.2256Z" fill="#878787"/>
</svg>
