<svg width="24" height="24" viewBox="0 0 24 24" fill="none" xmlns="http://www.w3.org/2000/svg">
<path d="M23.5097 8.28167L22.5481 6.6034C22.2918 6.15612 21.7224 5.99951 21.2734 6.25329C21.1317 6.33331 20.9771 6.3739 20.8136 6.3739C20.2966 6.3739 19.8761 5.95334 19.8761 5.43635C19.8761 5.10439 20.0549 4.79379 20.3428 4.62589C20.7875 4.36639 20.9398 3.79671 20.6837 3.34995L19.834 1.86696C19.3413 1.00718 18.5433 0.390682 17.587 0.131135C16.6308 -0.128458 15.6307 2.59727e-05 14.771 0.492917L1.86511 7.89242C0.717281 8.5505 0.002625 9.78214 0 11.1085V14.6712C0 15.189 0.419719 15.6087 0.937547 15.6087C1.45453 15.6087 1.87509 16.0293 1.87509 16.5462C1.87509 17.0632 1.45453 17.4838 0.937547 17.4838C0.419719 17.4838 0 17.9036 0 18.4213V20.2496C0 22.3174 1.68234 23.9997 3.75019 23.9997H18.8447C20.9125 23.9997 22.5949 22.3174 22.5949 20.2496V18.4213C22.5949 17.9035 22.1752 17.4838 21.6573 17.4838C21.1403 17.4838 20.7198 17.0632 20.7198 16.5462C20.7198 16.0293 21.1403 15.6087 21.6573 15.6087C22.1752 15.6087 22.5949 15.189 22.5949 14.6712V13.0347C24.0097 11.915 24.4333 9.89351 23.5097 8.28167ZM22.0152 10.75C21.3501 9.69893 20.178 8.999 18.8447 8.999H16.5148C16.6762 8.71934 16.6894 8.36412 16.5173 8.06384C16.2598 7.61464 15.6868 7.45915 15.2376 7.71668C14.7884 7.97422 14.6329 8.54707 14.8905 8.99628C14.891 8.99722 14.8916 8.99806 14.8922 8.999H9.89114C9.37331 8.999 8.95359 9.41871 8.95359 9.93654C8.95359 10.4544 9.37331 10.8741 9.89114 10.8741H18.8447C19.8787 10.8741 20.7198 11.7153 20.7198 12.7492V13.8942C19.6285 14.2812 18.8447 15.3239 18.8447 16.5462C18.8447 17.7686 19.6285 18.8112 20.7198 19.1982V20.2496C20.7198 21.2835 19.8787 22.1247 18.8447 22.1247H3.75019C2.71627 22.1247 1.87509 21.2835 1.87509 20.2496V19.1982C2.96644 18.8113 3.75019 17.7686 3.75019 16.5462C3.75019 15.3239 2.96644 14.2812 1.87509 13.8942V12.7492C1.87509 11.7153 2.71627 10.8741 3.75019 10.8741H5.20341C5.72123 10.8741 6.14095 10.4544 6.14095 9.93654C6.14095 9.41871 5.72123 8.999 5.20341 8.999H3.75019C3.7343 8.999 3.71864 9.00003 3.7028 9.00022L15.7036 2.11957C16.1287 1.87592 16.6231 1.81231 17.0959 1.9407C17.5688 2.06909 17.9634 2.37392 18.207 2.79917L18.6736 3.61339C18.2468 4.1157 18.0009 4.76103 18.0009 5.43631C18.0009 6.98721 19.2626 8.24895 20.8135 8.24895C20.9787 8.24895 21.1432 8.23428 21.3049 8.20554L21.8827 9.21382C22.161 9.69968 22.1917 10.2605 22.0152 10.75Z" fill="#878787"/>
<path d="M15.5633 14.1563C16.0811 14.1563 16.5008 13.7366 16.5008 13.2188C16.5008 12.701 16.0811 12.2812 15.5633 12.2812C15.0455 12.2812 14.6257 12.701 14.6257 13.2188C14.6257 13.7366 15.0455 14.1563 15.5633 14.1563Z" fill="#878787"/>
<path d="M15.5633 20.7188C16.0811 20.7188 16.5008 20.2991 16.5008 19.7813C16.5008 19.2635 16.0811 18.8438 15.5633 18.8438C15.0455 18.8438 14.6257 19.2635 14.6257 19.7813C14.6257 20.2991 15.0455 20.7188 15.5633 20.7188Z" fill="#878787"/>
<path d="M14.063 6.60752C14.5808 6.60752 15.0006 6.18776 15.0006 5.66997C15.0006 5.15218 14.5808 4.73242 14.063 4.73242C13.5452 4.73242 13.1255 5.15218 13.1255 5.66997C13.1255 6.18776 13.5452 6.60752 14.063 6.60752Z" fill="#878787"/>
</svg>
